<?xml version="1.0" standalone="no"?>
<!DOCTYPE svg PUBLIC "-//W3C//DTD SVG 20010904//EN"
 "http://www.w3.org/TR/2001/REC-SVG-20010904/DTD/svg10.dtd">
<svg version="1.0" xmlns="http://www.w3.org/2000/svg"
 width="1215.000000pt" height="1280.000000pt" viewBox="0 0 1215.000000 1280.000000"
 preserveAspectRatio="xMidYMid meet">
<metadata>
Created by potrace 1.15, written by Peter Selinger 2001-2017
</metadata>
<g transform="translate(0.000000,1280.000000) scale(0.100000,-0.100000)"
fill="royalblue" stroke="none">
<path d="M5626 12784 c-23 -22 -20 -71 3 -84 31 -16 59 -12 75 12 21 30 20 44
-4 68 -24 24 -53 26 -74 4z"/>
<path d="M5763 12643 l-101 -4 -6 -82 c-3 -45 -15 -407 -26 -804 l-21 -723
-450 -1062 c-248 -585 -453 -1069 -456 -1075 -4 -10 10 -13 51 -13 l56 0 0
-1355 0 -1355 -100 0 -100 0 0 -160 0 -160 -325 0 -325 0 0 160 0 160 -365 0
-365 0 0 -1035 0 -1035 -140 0 -140 0 -2 -162 -3 -163 -357 -3 -358 -2 0 165
0 165 -345 0 -345 0 0 345 0 345 140 0 140 0 0 410 0 410 -120 0 -120 0 0
-120 0 -120 -60 0 -60 0 0 1095 0 1095 51 0 c37 0 50 3 46 13 -3 6 -129 296
-282 642 -152 347 -285 649 -295 672 -15 35 -19 80 -24 270 -4 125 -9 267 -12
315 l-5 86 53 12 c185 40 258 54 378 74 l135 22 3 99 c2 86 6 103 25 123 27
29 15 53 -34 64 -53 13 -374 22 -480 14 l-95 -8 -2 -101 c-5 -259 -23 -875
-26 -902 -2 -16 -131 -329 -286 -695 -155 -366 -284 -673 -287 -682 -4 -15 1
-18 26 -18 l31 0 0 -1095 0 -1095 -60 0 -60 0 0 120 0 120 -130 0 -130 0 0
-410 0 -411 140 2 140 1 0 -2396 0 -2396 5272 2 5273 3 2 2394 3 2393 140 -1
140 -2 0 411 0 410 -120 0 -120 0 0 -118 c0 -65 -2 -121 -4 -123 -2 -2 -29 -2
-60 -1 l-56 4 0 1094 0 1094 51 0 c37 0 50 3 46 13 -3 6 -139 314 -301 682
l-296 670 -10 314 c-6 173 -7 317 -3 321 14 13 506 110 554 110 5 0 9 44 9 98
0 81 4 101 20 122 27 35 25 45 -12 61 -25 11 -98 14 -313 14 l-280 0 -12 -450
c-7 -247 -16 -486 -21 -530 -9 -73 -34 -137 -294 -750 l-284 -670 33 -3 33 -3
0 -1095 0 -1094 -60 0 -60 0 0 120 0 120 -130 0 -130 0 0 -410 0 -410 140 0
140 0 0 -345 0 -345 -335 0 -335 0 0 -165 0 -165 -357 2 -358 3 -3 163 -2 162
-140 0 -140 0 0 1035 0 1035 -310 0 -310 0 0 -160 0 -160 -325 0 -325 0 0 160
0 159 -67 3 -68 3 -3 1352 -2 1352 84 3 84 3 -473 1076 -474 1076 -15 483 c-9
266 -15 484 -13 486 12 12 529 115 742 147 l150 23 3 155 3 154 30 38 c17 20
29 45 27 55 -4 22 -47 42 -116 53 -62 10 -596 19 -759 12z"/>
<path d="M6614 12505 c-17 -26 -12 -45 12 -45 9 0 14 11 14 35 0 41 -4 43 -26
10z"/>
<path d="M7700 12503 c-25 -2 -155 -12 -290 -23 -384 -30 -638 -43 -728 -36
l-82 6 2 -202 3 -203 95 1 c166 2 489 59 840 148 283 71 281 71 715 70 339 -1
383 0 340 12 -44 11 -551 102 -587 105 -7 1 3 5 22 10 19 5 132 13 250 19 273
12 402 21 397 26 -7 8 -479 53 -661 64 -173 10 -222 10 -316 3z"/>
<path d="M10189 10054 c-17 -21 0 -49 32 -49 27 0 37 28 19 50 -16 19 -34 19
-51 -1z"/>
<path d="M901 10047 c-14 -17 -6 -43 16 -51 22 -9 45 13 41 38 -4 25 -40 33
-57 13z"/>
<path d="M1535 9877 c-4 -10 -5 -21 -1 -24 10 -10 18 4 13 24 -4 17 -4 17 -12
0z"/>
<path d="M10826 9882 c-12 -20 -7 -285 6 -293 29 -18 302 25 563 89 l190 47
257 0 c244 0 295 5 211 19 -215 36 -327 56 -330 60 -6 5 101 14 277 22 171 9
154 15 -105 39 -211 19 -341 19 -560 0 -93 -8 -243 -18 -332 -21 l-161 -7 -4
29 c-2 20 -6 25 -12 16z"/>
<path d="M2020 9860 c-118 -10 -277 -19 -352 -19 l-138 -1 0 -130 0 -130 48 0
c93 0 296 36 539 96 193 47 284 56 513 50 182 -5 191 -4 140 9 -30 8 -117 24
-192 37 -76 12 -138 25 -138 29 0 7 146 18 264 20 143 2 154 13 26 27 -149 16
-370 32 -440 30 -30 0 -152 -9 -270 -18z"/>
</g>
</svg>
